<svg version="1.1" id="Layer_1" xmlns="http://www.w3.org/2000/svg" xmlns:xlink="http://www.w3.org/1999/xlink" x="0px" y="0px"
	 width="100%" viewBox="0 0 1200 1200" enable-background="new 0 0 1200 1200" xml:space="preserve">
<path fill= "none" opacity="1.000000" stroke="none" 
	d="
M672.000000,1201.000000 
	C448.000000,1201.000000 224.500000,1201.000000 1.000000,1201.000000 
	C1.000000,801.000000 1.000000,401.000000 1.000000,1.000000 
	C401.000000,1.000000 801.000000,1.000000 1201.000000,1.000000 
	C1201.000000,401.000000 1201.000000,801.000000 1201.000000,1201.000000 
	C1024.833374,1201.000000 848.666687,1201.000000 672.000000,1201.000000 
M820.415100,624.968750 
	C823.823120,624.497864 827.730225,624.896118 830.496521,623.307678 
	C833.179138,621.767273 834.689819,618.185852 836.993042,615.132385 
	C837.750732,616.125244 838.767700,616.893250 838.991577,617.847412 
	C840.044983,622.334839 843.392029,623.986084 847.350586,624.475586 
	C850.789795,624.900940 854.308899,624.716614 857.793030,624.735168 
	C864.574585,624.771301 871.356506,624.787109 878.138062,624.760315 
	C882.624207,624.742615 887.822449,626.055298 891.432190,624.243225 
	C897.131409,621.382263 901.767517,622.784485 907.340820,623.688049 
	C915.960876,625.085327 924.876526,624.800964 933.671448,624.936279 
	C941.899658,625.062927 950.501343,626.423523 957.426941,618.462219 
	C960.079102,624.747742 965.021667,623.956421 969.669800,623.978271 
	C973.668762,623.997070 977.682617,623.762939 981.663513,624.031494 
	C988.146912,624.468872 993.374146,622.481873 996.931885,616.838867 
	C1007.443604,628.033997 1025.907959,628.017395 1035.444336,616.621887 
	C1039.904053,622.927368 1046.385864,624.926880 1053.673096,624.962646 
	C1063.004028,625.008484 1072.335205,624.973877 1081.666260,624.984131 
	C1089.800659,624.992981 1098.180420,625.954346 1104.296143,618.360107 
	C1109.035278,624.930847 1115.485107,625.189209 1122.080811,624.871338 
	C1126.553223,624.655884 1131.241943,625.021729 1135.430298,623.773315 
	C1141.006714,622.111206 1145.569458,622.801941 1151.198120,624.399658 
	C1157.546509,626.201660 1164.996704,624.803528 1171.859253,623.937683 
	C1180.278198,622.875427 1183.011963,619.416382 1182.936035,610.874634 
	C1182.695923,583.913452 1182.297852,556.953613 1181.946655,529.993469 
	C1181.933716,528.998718 1181.786377,528.004333 1181.676636,527.012512 
	C1180.596802,517.257324 1172.276123,512.018372 1165.567261,509.203979 
	C1155.808105,505.109955 1144.195312,504.539429 1133.789429,510.804291 
	C1128.035889,506.154449 1121.115234,508.335052 1114.614014,508.097809 
	C1107.263916,507.829620 1099.219849,506.417908 1096.338013,514.483154 
	C1091.452759,512.167480 1087.260864,508.806763 1082.758545,508.320648 
	C1072.044189,507.163879 1061.183472,507.127258 1050.380737,507.098969 
	C1042.422607,507.078156 1034.262695,507.157532 1028.726929,514.589661 
	C1028.249756,515.230286 1027.051270,515.333618 1025.630981,515.914246 
	C1024.088135,508.896759 1018.692017,507.607452 1013.037354,507.206879 
	C1007.896240,506.842651 1002.708069,507.197815 997.550598,506.989624 
	C993.263611,506.816620 990.240417,508.780334 987.746460,511.954651 
	C986.870972,513.068848 986.026001,514.207031 985.111694,515.406982 
	C975.684265,504.574036 957.425293,504.800842 947.950745,514.953857 
	C943.822388,512.616089 940.070923,509.125519 935.843140,508.396271 
	C928.207581,507.079163 920.158691,506.378906 912.519714,507.328857 
	C903.783813,508.415222 892.278503,504.357483 888.467651,518.737915 
	C885.590393,516.495667 883.705017,514.779541 881.585938,513.430664 
	C878.056274,511.183899 874.406433,507.402008 870.755981,507.341248 
	C840.938477,506.844635 811.108704,506.982208 781.283630,507.121216 
	C774.616577,507.152283 768.945862,512.894165 767.955872,519.682495 
	C767.468201,523.026672 766.920593,526.362061 766.307190,530.297119 
	C764.733765,528.959167 763.689941,528.169250 762.758179,527.264038 
	C754.831665,519.562927 746.416626,512.312134 735.519531,509.536163 
	C728.687134,507.795593 721.413269,507.174805 714.332825,507.145355 
	C698.200012,507.078156 682.065308,507.754669 665.929382,507.992584 
	C655.249634,508.150085 649.837708,512.594482 649.208984,523.338745 
	C648.441772,536.448853 648.177551,549.601135 648.133118,562.736694 
	C648.096619,573.537537 648.707336,584.340393 649.010620,595.142883 
	C649.076050,597.474060 648.462585,600.018311 649.202026,602.093811 
	C650.495239,605.723694 652.413269,609.176758 654.426697,612.486572 
	C655.577332,614.377991 657.828735,615.621643 658.889404,617.541138 
	C661.058838,621.466858 664.494751,623.234497 668.562317,623.747498 
	C673.824402,624.411255 679.149902,624.969299 684.442261,624.921570 
	C700.241882,624.779175 716.048889,623.822083 731.833130,624.148010 
	C743.380737,624.386475 752.815491,619.506165 762.142883,614.063904 
	C767.549377,610.909363 771.671021,610.952881 774.443237,616.580627 
	C777.608887,623.006897 782.903625,624.751709 789.125610,624.890015 
	C799.229919,625.114502 809.342651,624.962158 820.415100,624.968750 
M224.044708,517.106079 
	C222.651962,516.024353 220.712753,515.227661 219.971512,513.806213 
	C217.951935,509.933380 214.777222,508.109802 210.726791,508.084442 
	C194.623428,507.983765 178.517517,507.979858 162.415665,508.184967 
	C158.627655,508.233185 155.820374,510.440491 154.996490,514.414856 
	C154.403275,517.276367 154.003799,520.178101 153.441879,523.513062 
	C149.131683,519.434937 145.357285,515.308411 140.992935,511.948120 
	C138.480240,510.013519 135.082489,508.481201 131.962494,508.222412 
	C122.528679,507.439880 113.034096,507.036621 103.566513,507.088776 
	C84.431244,507.194183 65.292282,507.529877 46.169922,508.200348 
	C42.972805,508.312408 39.492947,510.074249 36.769363,511.971741 
	C30.956038,516.021851 30.199007,522.654846 30.129938,528.972534 
	C29.893139,550.632385 30.382099,572.304077 29.900734,593.955872 
	C29.609753,607.044128 38.488708,614.003784 46.447186,621.766418 
	C47.641056,622.930969 49.765289,623.697937 51.461262,623.701721 
	C63.102051,623.727661 74.761566,623.847961 86.378448,623.239380 
	C94.715996,622.802551 102.820190,617.002014 111.422783,623.522522 
	C113.573517,625.152649 117.905022,623.970581 121.234154,623.968262 
	C129.564636,623.962524 137.930557,624.336792 146.211914,623.676453 
	C150.989960,623.295471 155.622742,619.359070 160.352661,623.781128 
	C171.381409,623.214478 182.603485,626.117188 193.449844,621.879639 
	C194.422287,621.499756 195.817032,621.948608 196.940887,622.272217 
	C198.345398,622.676514 199.648239,623.757324 201.036957,623.839844 
	C209.163345,624.322937 217.302536,624.887207 225.436432,624.873047 
	C235.556076,624.855408 245.683105,624.456238 255.790100,623.909973 
	C260.207581,623.671204 264.583221,622.658447 270.113251,621.826477 
	C278.274109,627.050598 287.799683,625.869507 295.149628,622.286255 
	C301.221710,623.221252 305.259308,623.967285 309.329315,624.424683 
	C311.930298,624.716919 314.579071,624.613708 317.206818,624.630615 
	C320.020935,624.648621 323.047821,625.265259 325.608063,624.448608 
	C332.015076,622.404907 337.916626,622.394775 344.758514,623.622986 
	C355.276337,625.511047 366.285492,624.641846 377.084778,624.987305 
	C388.114288,625.340210 395.500336,620.836426 395.111206,609.030151 
	C395.079163,608.058350 395.599854,607.077332 395.632996,606.092834 
	C395.874390,598.918518 397.822906,591.408325 391.485992,585.657959 
	C396.970673,578.227478 394.983948,569.945435 394.722809,562.140015 
	C394.554779,557.117371 394.784271,552.417969 395.265961,547.427979 
	C396.363983,536.053162 397.094116,523.331360 384.114105,516.334290 
	C383.163239,515.821716 382.531403,514.660217 381.839386,513.734558 
	C379.065704,510.023987 375.431274,508.024658 370.754608,508.023956 
	C360.480743,508.022430 350.202271,508.200439 339.934967,507.939056 
	C334.710724,507.806061 330.562408,509.085114 327.281830,513.371826 
	C325.115631,516.202393 321.281799,515.775024 320.292755,512.534668 
	C318.850677,507.810394 315.449158,507.065918 311.409332,507.041748 
	C304.577576,507.000885 297.744568,507.088684 290.913696,507.000336 
	C284.234467,506.914001 277.202454,505.881134 274.841370,515.915039 
	C273.328796,513.609253 272.846802,512.303589 271.914703,511.569611 
	C269.827271,509.925995 267.572205,507.404236 265.285889,507.293365 
	C255.478149,506.817780 245.631866,506.954315 235.804794,507.140411 
	C231.136230,507.228821 228.567688,510.042542 228.067444,514.699768 
	C227.930527,515.974426 227.741989,517.243469 227.509659,519.035706 
	C226.267899,518.335815 225.449371,517.874451 224.044708,517.106079 
M413.406097,604.572510 
	C418.519928,610.474548 423.557373,616.446411 428.822205,622.210510 
	C429.706787,623.178894 431.542542,623.492981 432.995209,623.687134 
	C437.105133,624.236206 441.242859,624.908081 445.372284,624.926208 
	C470.031006,625.034546 494.690460,624.980469 519.349670,624.962769 
	C528.183350,624.956421 536.397217,623.702332 540.166931,613.085144 
	C541.745972,614.591980 543.131104,615.351868 543.645508,616.501343 
	C545.972839,621.701965 550.101318,624.081787 555.516174,624.091125 
	C569.448608,624.115173 583.394592,624.235291 597.306396,623.641357 
	C601.910828,623.444702 605.836182,620.553955 605.962097,614.970276 
	C606.031189,611.901794 607.700378,610.968933 610.464783,610.998047 
	C614.795959,611.043579 619.131165,611.070496 623.459595,610.938660 
	C630.472717,610.725037 634.844666,606.235107 634.968567,599.247070 
	C635.068970,593.585632 634.586548,587.850952 635.335388,582.279541 
	C636.300293,575.100647 636.664001,568.412964 631.931030,564.440491 
	C633.092896,558.728271 634.569702,554.225403 634.794189,549.660950 
	C635.069824,544.053406 634.031555,538.393494 634.053406,532.758118 
	C634.077393,526.559204 632.167969,521.750549 626.486267,518.701294 
	C625.241211,518.033081 624.156067,516.823547 623.348755,515.626282 
	C620.229797,511.000916 615.699219,508.279785 610.413452,508.209747 
	C589.148315,507.927734 567.871216,507.847809 546.614868,508.363739 
	C543.476257,508.439972 540.266418,511.922577 537.404907,514.221680 
	C536.105225,515.265930 535.575623,517.268555 534.172424,519.771606 
	C531.434509,517.465576 529.129639,515.248169 526.547058,513.423889 
	C523.771606,511.463593 520.925903,509.240662 517.762756,508.287292 
	C514.178223,507.206879 510.208313,507.114594 506.404053,507.100525 
	C481.745422,507.009491 457.083496,506.836639 432.428406,507.146149 
	C418.875122,507.316315 414.664124,513.282410 413.214783,525.956665 
	C412.179047,535.014160 412.046631,544.213684 412.088837,553.347107 
	C412.160248,568.815430 412.685455,584.281555 413.028961,599.748413 
	C413.058563,601.079468 413.156128,602.408997 413.406097,604.572510 
z"/>
<path fill="#13323D" opacity="1.000000" stroke="none" 
	d="
M819.933472,624.968750 
	C809.342651,624.962158 799.229919,625.114502 789.125610,624.890015 
	C782.903625,624.751709 777.608887,623.006897 774.443237,616.580627 
	C771.671021,610.952881 767.549377,610.909363 762.142883,614.063904 
	C752.815491,619.506165 743.380737,624.386475 731.833130,624.148010 
	C716.048889,623.822083 700.241882,624.779175 684.442261,624.921570 
	C679.149902,624.969299 673.824402,624.411255 668.562317,623.747498 
	C664.494751,623.234497 661.058838,621.466858 658.889404,617.541138 
	C657.828735,615.621643 655.577332,614.377991 654.426697,612.486572 
	C652.413269,609.176758 650.495239,605.723694 649.202026,602.093811 
	C648.462585,600.018311 649.076050,597.474060 649.010620,595.142883 
	C648.707336,584.340393 648.096619,573.537537 648.133118,562.736694 
	C648.177551,549.601135 648.441772,536.448853 649.208984,523.338745 
	C649.837708,512.594482 655.249634,508.150085 665.929382,507.992584 
	C682.065308,507.754669 698.200012,507.078156 714.332825,507.145355 
	C721.413269,507.174805 728.687134,507.795593 735.519531,509.536163 
	C746.416626,512.312134 754.831665,519.562927 762.758179,527.264038 
	C763.689941,528.169250 764.733765,528.959167 766.307190,530.297119 
	C766.920593,526.362061 767.468201,523.026672 767.955872,519.682495 
	C768.945862,512.894165 774.616577,507.152283 781.283630,507.121216 
	C811.108704,506.982208 840.938477,506.844635 870.755981,507.341248 
	C874.406433,507.402008 878.056274,511.183899 881.585938,513.430664 
	C883.705017,514.779541 885.590393,516.495667 888.467651,518.737915 
	C892.278503,504.357483 903.783813,508.415222 912.519714,507.328857 
	C920.158691,506.378906 928.207581,507.079163 935.843140,508.396271 
	C940.070923,509.125519 943.822388,512.616089 947.950745,514.953857 
	C957.425293,504.800842 975.684265,504.574036 985.111694,515.406982 
	C986.026001,514.207031 986.870972,513.068848 987.746460,511.954651 
	C990.240417,508.780334 993.263611,506.816620 997.550598,506.989624 
	C1002.708069,507.197815 1007.896240,506.842651 1013.037354,507.206879 
	C1018.692017,507.607452 1024.088135,508.896759 1025.630981,515.914246 
	C1027.051270,515.333618 1028.249756,515.230286 1028.726929,514.589661 
	C1034.262695,507.157532 1042.422607,507.078156 1050.380737,507.098969 
	C1061.183472,507.127258 1072.044189,507.163879 1082.758545,508.320648 
	C1087.260864,508.806763 1091.452759,512.167480 1096.338013,514.483154 
	C1099.219849,506.417908 1107.263916,507.829620 1114.614014,508.097809 
	C1121.115234,508.335052 1128.035889,506.154449 1133.789429,510.804291 
	C1144.195312,504.539429 1155.808105,505.109955 1165.567261,509.203979 
	C1172.276123,512.018372 1180.596802,517.257324 1181.676636,527.012512 
	C1181.786377,528.004333 1181.933716,528.998718 1181.946655,529.993469 
	C1182.297852,556.953613 1182.695923,583.913452 1182.936035,610.874634 
	C1183.011963,619.416382 1180.278198,622.875427 1171.859253,623.937683 
	C1164.996704,624.803528 1157.546509,626.201660 1151.198120,624.399658 
	C1145.569458,622.801941 1141.006714,622.111206 1135.430298,623.773315 
	C1131.241943,625.021729 1126.553223,624.655884 1122.080811,624.871338 
	C1115.485107,625.189209 1109.035278,624.930847 1104.296143,618.360107 
	C1098.180420,625.954346 1089.800659,624.992981 1081.666260,624.984131 
	C1072.335205,624.973877 1063.004028,625.008484 1053.673096,624.962646 
	C1046.385864,624.926880 1039.904053,622.927368 1035.444336,616.621887 
	C1025.907959,628.017395 1007.443604,628.033997 996.931885,616.838867 
	C993.374146,622.481873 988.146912,624.468872 981.663513,624.031494 
	C977.682617,623.762939 973.668762,623.997070 969.669800,623.978271 
	C965.021667,623.956421 960.079102,624.747742 957.426941,618.462219 
	C950.501343,626.423523 941.899658,625.062927 933.671448,624.936279 
	C924.876526,624.800964 915.960876,625.085327 907.340820,623.688049 
	C901.767517,622.784485 897.131409,621.382263 891.432190,624.243225 
	C887.822449,626.055298 882.624207,624.742615 878.138062,624.760315 
	C871.356506,624.787109 864.574585,624.771301 857.793030,624.735168 
	C854.308899,624.716614 850.789795,624.900940 847.350586,624.475586 
	C843.392029,623.986084 840.044983,622.334839 838.991577,617.847412 
	C838.767700,616.893250 837.750732,616.125244 836.993042,615.132385 
	C834.689819,618.185852 833.179138,621.767273 830.496521,623.307678 
	C827.730225,624.896118 823.823120,624.497864 819.933472,624.968750 
M878.616028,515.082764 
	C875.334534,510.766937 870.699951,509.991028 865.684692,510.006897 
	C838.865601,510.091705 812.046204,510.096069 785.227173,510.205933 
	C775.292297,510.246613 771.122192,514.579651 770.992493,524.639587 
	C770.659729,550.453186 770.361206,576.267334 769.967285,602.080017 
	C769.856506,609.337585 772.188171,611.974060 779.655273,612.040466 
	C791.981384,612.150085 804.308655,612.159241 816.635315,612.133911 
	C821.458496,612.123962 823.205078,610.179504 822.870483,605.338989 
	C822.710388,603.022827 822.023315,600.708130 822.141602,598.421997 
	C822.203491,597.225098 823.271912,595.457397 824.285950,595.107727 
	C825.301819,594.757385 827.337097,595.466187 828.015137,596.383606 
	C830.180237,599.313171 832.841064,602.343262 833.621399,605.724365 
	C834.919067,611.346985 838.248840,612.265991 843.085693,612.205261 
	C854.910522,612.056885 866.738281,612.108887 878.564697,612.142090 
	C886.533264,612.164551 889.494385,608.474243 886.312561,601.170471 
	C882.933716,593.414551 878.945435,585.877747 874.652527,578.580994 
	C871.065613,572.484192 870.645752,572.034546 876.393860,567.979187 
	C881.303101,564.515625 882.971863,559.928406 882.712341,554.200378 
	C882.312927,545.384949 882.290100,536.545776 881.639038,527.751343 
	C881.339478,523.704285 879.929626,519.739380 878.616028,515.082764 
M762.272705,582.372009 
	C761.930603,567.728088 761.833313,553.071594 761.077637,538.449036 
	C760.884033,534.702881 759.582642,530.143433 757.118103,527.541565 
	C748.265564,518.196167 738.004822,510.965179 724.246704,510.999176 
	C704.942322,511.046906 685.637817,511.049225 666.333374,511.034119 
	C657.219421,511.026978 653.695862,514.122192 652.780518,523.225830 
	C652.497681,526.038940 652.267456,528.872986 652.273315,531.696899 
	C652.319092,554.003296 652.380188,576.309937 652.538818,598.615662 
	C652.609558,608.567688 656.142151,611.966125 666.272827,611.980225 
	C683.087585,612.003540 699.918579,611.468445 716.711731,612.055542 
	C728.665955,612.473511 739.264343,609.699768 749.486450,603.652832 
	C757.478394,598.925293 762.467957,592.917236 762.272705,582.372009 
M991.202698,513.045898 
	C990.712402,514.743225 989.802185,516.443054 989.812439,518.137390 
	C989.840454,522.790466 990.321960,527.438965 990.478821,532.094177 
	C990.531189,533.648193 990.144836,535.217102 989.959045,536.779175 
	C989.447937,536.811646 988.936829,536.844055 988.425720,536.876465 
	C986.868652,532.229309 985.399048,527.550598 983.736755,522.941284 
	C979.895386,512.289368 978.292847,511.194061 967.135803,511.134491 
	C965.804077,511.127380 964.472412,511.087891 963.140747,511.062408 
	C954.298096,510.893280 950.882874,513.898132 950.753113,522.751038 
	C950.418945,545.552856 950.241211,568.357544 950.136108,591.161682 
	C950.117004,595.308350 950.470947,599.501770 951.140808,603.593689 
	C951.800232,607.621887 953.156250,611.699158 958.239014,611.898010 
	C964.389221,612.138611 970.567200,612.180786 976.712280,611.880249 
	C981.968689,611.623230 984.506409,608.580444 984.302246,603.426880 
	C984.137634,599.271301 983.708618,595.126648 983.505127,590.971924 
	C983.424500,589.327332 983.635986,587.668335 983.714417,586.015930 
	C984.174194,585.937073 984.633911,585.858154 985.093689,585.779297 
	C985.737183,587.194397 986.497131,588.569397 987.002075,590.032288 
	C988.411926,594.117126 989.519531,598.315979 991.102051,602.329651 
	C994.677490,611.397827 995.675781,611.971497 1005.467468,611.994934 
	C1006.965759,611.998535 1008.464478,612.014099 1009.961975,612.058655 
	C1020.797791,612.380981 1022.797119,610.688599 1023.026489,599.637695 
	C1023.264771,588.157349 1023.061951,576.667603 1023.039124,565.182007 
	C1023.010681,550.864685 1022.989380,536.547241 1022.925110,522.230042 
	C1022.887390,513.822998 1020.830139,511.554138 1012.606873,510.864441 
	C1008.296692,510.502930 1003.957581,509.947845 999.662292,510.146240 
	C997.011658,510.268677 994.418945,511.645233 991.202698,513.045898 
M1169.958008,535.513184 
	C1169.620117,529.535583 1169.426392,523.544983 1168.891724,517.585022 
	C1168.556519,513.849915 1166.341919,511.468445 1162.446777,511.133850 
	C1157.308716,510.692505 1152.163086,510.134308 1147.014771,510.064972 
	C1138.872681,509.955292 1136.964355,512.071533 1137.119385,520.025818 
	C1137.255615,527.019531 1137.436768,534.017395 1137.284546,541.006592 
	C1137.258423,542.206543 1135.662964,543.372192 1134.792603,544.553711 
	C1133.886353,543.396790 1132.529053,542.358582 1132.185669,541.053467 
	C1131.734985,539.341187 1132.025269,537.416138 1132.099487,535.586792 
	C1132.302368,530.594666 1132.749634,525.604614 1132.748535,520.613831 
	C1132.746826,513.666931 1129.923584,511.005646 1123.020142,510.981689 
	C1118.689453,510.966675 1114.358521,510.996979 1110.027710,511.007080 
	C1101.794312,511.026276 1099.290894,513.549194 1099.236206,521.720459 
	C1099.152588,534.212402 1098.850342,546.705078 1098.941528,559.195251 
	C1099.047485,573.684021 1099.365479,588.173950 1099.813354,602.656494 
	C1100.056885,610.533936 1101.913086,612.087769 1109.925903,612.086426 
	C1115.089111,612.085571 1120.253174,612.021790 1125.415405,611.921021 
	C1130.057007,611.830505 1132.347778,609.724548 1132.174805,604.759827 
	C1131.902222,596.939392 1131.932251,589.101624 1132.134155,581.278992 
	C1132.163330,580.148560 1133.859619,579.061218 1134.784424,577.953979 
	C1135.663208,579.073975 1136.923340,580.075867 1137.317261,581.346252 
	C1137.737061,582.701050 1137.320435,584.309265 1137.300171,585.807312 
	C1137.219238,591.801514 1136.974976,597.800232 1137.125977,603.788940 
	C1137.280029,609.901062 1139.805786,612.122986 1145.759155,612.083008 
	C1150.589478,612.050598 1155.425049,612.217163 1160.249268,612.042908 
	C1168.619385,611.740540 1170.705933,609.394653 1170.616821,600.937561 
	C1170.390503,579.461365 1170.181396,557.984985 1169.958008,535.513184 
M1091.016968,516.635498 
	C1088.284668,512.440002 1084.205200,511.016357 1079.438354,511.012726 
	C1067.789551,511.003815 1056.140625,510.942688 1044.492188,511.006561 
	C1035.015503,511.058533 1029.412231,515.563904 1029.232910,524.950317 
	C1028.755859,549.917664 1028.803467,574.898376 1028.941040,599.872070 
	C1028.978027,606.587341 1034.134399,611.700256 1040.661255,611.904236 
	C1054.133911,612.325195 1067.622192,612.642883 1081.096924,612.466614 
	C1090.227295,612.347168 1094.230713,608.528076 1094.965210,599.488647 
	C1095.719238,590.210022 1095.743652,580.871216 1096.049927,571.557495 
	C1096.167603,567.979919 1094.416382,565.915771 1090.822388,565.522888 
	C1086.520142,565.052551 1082.213623,564.622620 1077.911011,564.155640 
	C1067.119873,562.984680 1067.197998,562.990295 1065.840332,573.513184 
	C1065.685913,574.709412 1064.062988,575.716125 1063.121094,576.810791 
	C1062.411377,575.710327 1061.138916,574.636292 1061.085571,573.504944 
	C1060.796021,567.353027 1060.662476,561.183960 1060.787598,555.027161 
	C1060.836182,552.628235 1059.844360,548.722229 1063.774780,548.788208 
	C1067.795166,548.855530 1065.946533,552.705078 1065.855957,554.731262 
	C1065.667236,558.953430 1067.225098,560.788879 1071.343872,560.071350 
	C1078.058350,558.901550 1084.840698,557.903992 1091.373291,556.053101 
	C1093.105957,555.562195 1095.005127,552.284851 1095.142090,550.177490 
	C1095.529175,544.218811 1095.439087,538.159241 1094.777588,532.223999 
	C1094.214966,527.175110 1092.597168,522.243774 1091.016968,516.635498 
M923.376648,612.926880 
	C928.030029,612.688782 932.692322,612.560364 937.334351,612.182678 
	C942.295471,611.778931 945.437683,608.951111 945.974915,604.042786 
	C946.607056,598.267944 946.870911,592.435486 946.948242,586.623413 
	C946.999084,582.805359 944.736694,580.935425 940.834717,581.100647 
	C936.512024,581.283752 932.185303,581.373779 927.859985,581.492859 
	C923.942932,581.600647 922.722961,579.884155 924.467224,575.726440 
	C928.944397,575.448792 933.574402,575.230042 938.192078,574.858887 
	C944.739929,574.332458 945.935913,573.058838 946.020386,566.583862 
	C946.072510,562.592896 946.122925,558.592712 945.917664,554.609863 
	C945.633179,549.087952 944.056458,547.651978 938.479431,547.598816 
	C934.819336,547.563965 931.142944,547.924316 927.504089,547.672119 
	C926.202332,547.581909 924.989319,546.213013 923.735840,545.427673 
	C924.947266,544.669006 926.106689,543.370239 927.379456,543.247620 
	C932.177307,542.785278 937.013184,542.727234 941.832581,542.474976 
	C945.253235,542.295898 947.151428,540.379211 946.962952,537.021667 
	C946.683838,532.048767 946.495789,526.999146 945.454712,522.157227 
	C943.846619,514.678223 939.191956,511.153717 931.598450,511.034088 
	C922.951965,510.897797 914.281128,511.351593 905.659424,510.865631 
	C896.347656,510.340790 891.643250,513.963806 890.962830,525.346619 
	C890.347290,535.644592 889.904724,545.966492 889.840027,556.280640 
	C889.750244,570.593079 889.968262,584.910828 890.284302,599.221191 
	C890.455017,606.952026 894.266479,611.387390 900.982544,611.896729 
	C908.111816,612.437561 915.268311,612.618591 923.376648,612.926880 
z"/>
<path fill="#13333D" opacity="1.000000" stroke="none" 
	d="
M224.337769,517.259583 
	C225.449371,517.874451 226.267899,518.335815 227.509659,519.035706 
	C227.741989,517.243469 227.930527,515.974426 228.067444,514.699768 
	C228.567688,510.042542 231.136230,507.228821 235.804794,507.140411 
	C245.631866,506.954315 255.478149,506.817780 265.285889,507.293365 
	C267.572205,507.404236 269.827271,509.925995 271.914703,511.569611 
	C272.846802,512.303589 273.328796,513.609253 274.841370,515.915039 
	C277.202454,505.881134 284.234467,506.914001 290.913696,507.000336 
	C297.744568,507.088684 304.577576,507.000885 311.409332,507.041748 
	C315.449158,507.065918 318.850677,507.810394 320.292755,512.534668 
	C321.281799,515.775024 325.115631,516.202393 327.281830,513.371826 
	C330.562408,509.085114 334.710724,507.806061 339.934967,507.939056 
	C350.202271,508.200439 360.480743,508.022430 370.754608,508.023956 
	C375.431274,508.024658 379.065704,510.023987 381.839386,513.734558 
	C382.531403,514.660217 383.163239,515.821716 384.114105,516.334290 
	C397.094116,523.331360 396.363983,536.053162 395.265961,547.427979 
	C394.784271,552.417969 394.554779,557.117371 394.722809,562.140015 
	C394.983948,569.945435 396.970673,578.227478 391.485992,585.657959 
	C397.822906,591.408325 395.874390,598.918518 395.632996,606.092834 
	C395.599854,607.077332 395.079163,608.058350 395.111206,609.030151 
	C395.500336,620.836426 388.114288,625.340210 377.084778,624.987305 
	C366.285492,624.641846 355.276337,625.511047 344.758514,623.622986 
	C337.916626,622.394775 332.015076,622.404907 325.608063,624.448608 
	C323.047821,625.265259 320.020935,624.648621 317.206818,624.630615 
	C314.579071,624.613708 311.930298,624.716919 309.329315,624.424683 
	C305.259308,623.967285 301.221710,623.221252 295.149628,622.286255 
	C287.799683,625.869507 278.274109,627.050598 270.113251,621.826477 
	C264.583221,622.658447 260.207581,623.671204 255.790100,623.909973 
	C245.683105,624.456238 235.556076,624.855408 225.436432,624.873047 
	C217.302536,624.887207 209.163345,624.322937 201.036957,623.839844 
	C199.648239,623.757324 198.345398,622.676514 196.940887,622.272217 
	C195.817032,621.948608 194.422287,621.499756 193.449844,621.879639 
	C182.603485,626.117188 171.381409,623.214478 160.352661,623.781128 
	C155.622742,619.359070 150.989960,623.295471 146.211914,623.676453 
	C137.930557,624.336792 129.564636,623.962524 121.234154,623.968262 
	C117.905022,623.970581 113.573517,625.152649 111.422783,623.522522 
	C102.820190,617.002014 94.715996,622.802551 86.378448,623.239380 
	C74.761566,623.847961 63.102051,623.727661 51.461262,623.701721 
	C49.765289,623.697937 47.641056,622.930969 46.447186,621.766418 
	C38.488708,614.003784 29.609753,607.044128 29.900734,593.955872 
	C30.382099,572.304077 29.893139,550.632385 30.129938,528.972534 
	C30.199007,522.654846 30.956038,516.021851 36.769363,511.971741 
	C39.492947,510.074249 42.972805,508.312408 46.169922,508.200348 
	C65.292282,507.529877 84.431244,507.194183 103.566513,507.088776 
	C113.034096,507.036621 122.528679,507.439880 131.962494,508.222412 
	C135.082489,508.481201 138.480240,510.013519 140.992935,511.948120 
	C145.357285,515.308411 149.131683,519.434937 153.441879,523.513062 
	C154.003799,520.178101 154.403275,517.276367 154.996490,514.414856 
	C155.820374,510.440491 158.627655,508.233185 162.415665,508.184967 
	C178.517517,507.979858 194.623428,507.983765 210.726791,508.084442 
	C214.777222,508.109802 217.951935,509.933380 219.971512,513.806213 
	C220.712753,515.227661 222.651962,516.024353 224.337769,517.259583 
M235.656052,612.049683 
	C240.654327,612.014832 245.664734,611.748901 250.647385,612.011047 
	C255.482346,612.265259 257.354401,609.867188 257.471741,605.515625 
	C257.592957,601.021667 257.467987,596.520020 257.638672,592.028870 
	C257.706635,590.240540 258.278809,588.471375 258.621460,586.693420 
	C259.094818,586.712952 259.568146,586.732483 260.041504,586.752014 
	C260.361145,588.460815 260.685852,590.168762 260.999420,591.878662 
	C261.957581,597.103455 262.866882,602.337769 263.884125,607.551025 
	C264.470306,610.555237 266.260651,612.397766 269.477234,611.989929 
	C274.829865,611.311279 281.052979,614.484131 285.283997,608.985474 
	C286.487427,607.421509 286.589386,604.901001 286.889984,602.775696 
	C287.402527,599.151917 287.586578,595.482117 288.081207,591.855164 
	C288.322327,590.086914 288.952789,588.371704 289.406982,586.632507 
	C289.945801,586.693481 290.484619,586.754456 291.023407,586.815369 
	C291.382843,592.032043 291.969330,597.245056 292.052368,602.466064 
	C292.204803,612.047058 292.081085,612.047913 301.837708,612.036011 
	C306.835968,612.029968 311.836395,612.119080 316.831970,612.001221 
	C322.554932,611.866211 324.254303,609.827087 323.858032,604.282227 
	C322.861023,590.331238 322.007568,576.369751 320.974243,562.421570 
	C319.830353,546.980591 318.515625,531.552368 317.351227,516.112854 
	C317.001648,511.477722 314.685455,509.945801 310.113190,510.109558 
	C302.294464,510.389587 294.446411,510.335144 286.629181,509.995422 
	C281.751984,509.783478 279.580658,511.711792 279.191254,516.458862 
	C278.592468,523.759155 277.798035,531.044922 276.966827,538.323242 
	C276.783173,539.931152 276.099060,541.481873 275.645416,543.058960 
	C275.190582,543.064880 274.735748,543.070862 274.280884,543.076782 
	C273.830048,541.977661 273.151581,540.915771 272.964966,539.773499 
	C271.677612,531.893433 270.217651,524.025574 269.386505,516.093628 
	C268.943512,511.866089 267.256592,510.188629 263.132477,510.211426 
	C255.469788,510.253784 247.806030,510.031708 240.142532,510.015472 
	C232.906387,510.000153 231.669434,511.079834 231.218689,518.253113 
	C230.048767,536.870850 228.993759,555.495728 227.888748,574.117493 
	C227.309341,583.881836 226.721268,593.645691 226.137100,603.409729 
	C224.753708,600.238342 224.205139,597.123840 223.915833,593.985413 
	C221.592667,568.783569 219.226501,543.584778 217.109268,518.365356 
	C216.701584,513.509216 214.209366,511.241669 209.895737,511.188263 
	C194.910095,511.002716 179.918930,510.987579 164.933975,511.198914 
	C160.679977,511.258881 158.029465,513.454041 157.779160,518.402588 
	C157.291550,528.042053 156.349106,537.661987 155.450516,547.276489 
	C153.683990,566.177673 151.781464,585.066101 150.016342,603.967407 
	C149.470230,609.815369 150.747467,611.759949 155.536575,611.898132 
	C162.860199,612.109314 170.202667,612.125122 177.522400,611.842407 
	C181.942154,611.671692 184.531540,609.392944 184.101212,604.396912 
	C183.846436,601.438965 184.050354,598.385010 184.518173,595.449219 
	C184.704865,594.277588 186.157928,593.307739 187.034500,592.245972 
	C187.888962,593.296143 189.316391,594.260437 189.488968,595.412720 
	C189.979874,598.690491 190.237244,602.058594 190.073883,605.365845 
	C189.833801,610.226807 192.254028,611.972717 196.676910,611.980591 
	C204.174164,611.993958 211.676315,612.198242 219.165558,611.968750 
	C221.401154,611.900269 223.600601,610.652649 225.816605,609.945251 
	C225.702667,610.162903 225.588730,610.380554 225.474777,610.598206 
	C228.553757,611.082397 231.632721,611.566650 235.656052,612.049683 
M146.324249,585.504639 
	C146.514420,580.369995 146.503510,575.217896 146.946838,570.105225 
	C147.473755,564.028809 145.597427,561.797241 139.541031,561.957703 
	C136.377167,562.041504 133.211441,562.062195 130.046387,562.093323 
	C121.219337,562.180115 112.391029,562.199402 103.565819,562.375244 
	C101.031609,562.425720 98.787994,562.890198 97.945404,566.168091 
	C97.541237,567.740479 95.496445,569.928955 94.100716,570.000305 
	C90.831192,570.167358 85.209770,570.062012 84.663902,568.564270 
	C83.400078,565.096619 83.094482,558.825867 85.149796,557.227844 
	C87.678963,555.261353 93.022141,556.678711 97.112198,557.045227 
	C99.481331,557.257507 102.050232,559.304138 104.062836,558.769470 
	C116.762596,555.395752 129.374771,551.664978 141.892120,547.664917 
	C143.553589,547.134033 145.629166,544.387085 145.597336,542.702576 
	C145.484589,536.736816 144.822510,530.740295 143.847458,524.841492 
	C142.280075,515.359314 137.010025,511.053894 127.286507,511.029419 
	C101.469193,510.964386 75.651596,510.962280 49.834209,510.999817 
	C39.811062,511.014374 34.054153,516.718811 34.019646,526.808228 
	C33.941032,549.793335 33.973042,572.778931 34.010403,595.764221 
	C34.029102,607.269043 38.446190,611.732849 50.051781,611.906433 
	C64.208771,612.118225 78.372299,612.372559 92.051315,607.643860 
	C95.514877,606.446533 98.790909,606.391052 101.321838,610.039062 
	C102.097237,611.156677 104.205986,611.857117 105.714867,611.875610 
	C115.543182,611.996277 125.381691,612.091370 135.202225,611.760498 
	C141.834122,611.537048 145.601242,607.587219 146.031586,600.985535 
	C146.345444,596.170898 146.259735,591.330322 146.324249,585.504639 
M382.101898,571.135193 
	C382.179260,565.497498 382.231537,559.859253 382.341400,554.222168 
	C382.439117,549.208191 379.618591,547.477173 375.062347,547.572021 
	C371.065460,547.655151 367.056122,547.874207 363.078003,547.624268 
	C362.048157,547.559570 361.114746,545.960999 360.137054,545.067078 
	C361.143829,544.435425 362.109894,543.348083 363.164642,543.253906 
	C366.975708,542.913330 370.820740,542.979553 374.645325,542.759338 
	C383.222534,542.265625 383.843597,541.485718 383.189453,532.722351 
	C383.040710,530.729980 383.098145,528.720581 382.912872,526.732788 
	C381.899933,515.864502 377.022705,511.189453 366.276154,511.001648 
	C358.454926,510.864929 350.610504,511.305939 342.810608,510.873260 
	C330.513702,510.191162 327.672302,516.155640 327.459076,525.217224 
	C326.863739,550.517395 326.961304,575.836853 327.047211,601.147888 
	C327.068298,607.357056 331.303070,611.626526 337.431732,611.849426 
	C349.067169,612.272461 360.722839,612.457397 372.363678,612.291809 
	C379.172577,612.194946 382.276062,608.903442 382.889771,602.064392 
	C383.291107,597.592468 383.220215,593.080017 383.448059,588.590149 
	C383.735321,582.928894 381.875244,580.983521 376.288055,581.167419 
	C372.126251,581.304382 367.946411,581.609192 363.808411,581.333008 
	C362.496857,581.245483 361.294220,579.525879 360.041779,578.553101 
	C361.120575,577.602051 362.087280,576.040405 363.299835,575.817871 
	C366.549072,575.221191 369.963287,575.499573 373.198700,574.858582 
	C376.150970,574.273621 378.954773,572.939209 382.101898,571.135193 
z"/>
<path fill="#13323D" opacity="1.000000" stroke="none" 
	d="
M413.314087,604.155884 
	C413.156128,602.408997 413.058563,601.079468 413.028961,599.748413 
	C412.685455,584.281555 412.160248,568.815430 412.088837,553.347107 
	C412.046631,544.213684 412.179047,535.014160 413.214783,525.956665 
	C414.664124,513.282410 418.875122,507.316315 432.428406,507.146149 
	C457.083496,506.836639 481.745422,507.009491 506.404053,507.100525 
	C510.208313,507.114594 514.178223,507.206879 517.762756,508.287292 
	C520.925903,509.240662 523.771606,511.463593 526.547058,513.423889 
	C529.129639,515.248169 531.434509,517.465576 534.172424,519.771606 
	C535.575623,517.268555 536.105225,515.265930 537.404907,514.221680 
	C540.266418,511.922577 543.476257,508.439972 546.614868,508.363739 
	C567.871216,507.847809 589.148315,507.927734 610.413452,508.209747 
	C615.699219,508.279785 620.229797,511.000916 623.348755,515.626282 
	C624.156067,516.823547 625.241211,518.033081 626.486267,518.701294 
	C632.167969,521.750549 634.077393,526.559204 634.053406,532.758118 
	C634.031555,538.393494 635.069824,544.053406 634.794189,549.660950 
	C634.569702,554.225403 633.092896,558.728271 631.931030,564.440491 
	C636.664001,568.412964 636.300293,575.100647 635.335388,582.279541 
	C634.586548,587.850952 635.068970,593.585632 634.968567,599.247070 
	C634.844666,606.235107 630.472717,610.725037 623.459595,610.938660 
	C619.131165,611.070496 614.795959,611.043579 610.464783,610.998047 
	C607.700378,610.968933 606.031189,611.901794 605.962097,614.970276 
	C605.836182,620.553955 601.910828,623.444702 597.306396,623.641357 
	C583.394592,624.235291 569.448608,624.115173 555.516174,624.091125 
	C550.101318,624.081787 545.972839,621.701965 543.645508,616.501343 
	C543.131104,615.351868 541.745972,614.591980 540.166931,613.085144 
	C536.397217,623.702332 528.183350,624.956421 519.349670,624.962769 
	C494.690460,624.980469 470.031006,625.034546 445.372284,624.926208 
	C441.242859,624.908081 437.105133,624.236206 432.995209,623.687134 
	C431.542542,623.492981 429.706787,623.178894 428.822205,622.210510 
	C423.557373,616.446411 418.519928,610.474548 413.314087,604.155884 
M517.036987,612.037415 
	C524.919067,611.057190 527.873962,607.391602 527.831177,597.091797 
	C527.731567,573.114014 527.426025,549.135559 526.981567,525.161499 
	C526.812988,516.064392 521.425903,511.030334 512.467834,511.018036 
	C485.151276,510.980560 457.834625,510.999542 430.518036,511.010864 
	C423.441528,511.013794 420.050659,513.302002 418.048492,520.036865 
	C417.161285,523.021118 416.773071,526.248901 416.730713,529.373962 
	C416.419128,552.357727 416.186951,575.343201 416.073151,598.328796 
	C416.029327,607.183716 420.724579,611.917053 429.688446,611.956299 
	C458.500183,612.082642 487.312653,612.046997 517.036987,612.037415 
M611.428040,511.619171 
	C609.453491,511.413849 607.479370,511.035278 605.504333,511.030334 
	C587.693909,510.985901 569.883362,510.992859 552.072815,511.014679 
	C542.801208,511.026031 538.261597,514.889648 538.153198,524.108887 
	C537.853943,549.565796 537.841309,575.027771 537.956909,600.486694 
	C537.993225,608.487732 541.711670,611.910217 549.819885,611.999939 
	C561.638672,612.130798 573.460632,612.050415 585.280579,611.966187 
	C591.378601,611.922729 593.835632,609.591492 593.620178,603.468811 
	C593.467163,599.120972 595.300415,597.879211 599.258423,598.180542 
	C604.067383,598.546631 608.902832,598.952332 613.712830,598.822571 
	C620.044250,598.651855 622.724060,595.664917 622.837036,589.480774 
	C622.976929,581.824036 623.112122,574.167175 623.254456,566.510498 
	C623.365784,560.519348 620.889832,557.891602 614.973816,557.883972 
	C608.647644,557.875854 602.321350,557.967468 595.995056,557.992004 
	C593.615784,558.001221 590.676208,558.066223 591.257080,554.710144 
	C591.471497,553.470947 594.198975,551.880554 595.836548,551.812927 
	C602.145752,551.552490 608.478149,551.926270 614.801147,551.898560 
	C618.853149,551.880798 622.329773,550.445435 622.359924,545.782654 
	C622.406067,538.635620 621.829895,531.486938 621.716370,524.335815 
	C621.611816,517.752441 618.252014,513.835815 611.428040,511.619171 
z"/>
<path fill="#48E793" opacity="1.000000" stroke="none" 
	d="
M878.819641,515.409973 
	C879.929626,519.739380 881.339478,523.704285 881.639038,527.751343 
	C882.290100,536.545776 882.312927,545.384949 882.712341,554.200378 
	C882.971863,559.928406 881.303101,564.515625 876.393860,567.979187 
	C870.645752,572.034546 871.065613,572.484192 874.652527,578.580994 
	C878.945435,585.877747 882.933716,593.414551 886.312561,601.170471 
	C889.494385,608.474243 886.533264,612.164551 878.564697,612.142090 
	C866.738281,612.108887 854.910522,612.056885 843.085693,612.205261 
	C838.248840,612.265991 834.919067,611.346985 833.621399,605.724365 
	C832.841064,602.343262 830.180237,599.313171 828.015137,596.383606 
	C827.337097,595.466187 825.301819,594.757385 824.285950,595.107727 
	C823.271912,595.457397 822.203491,597.225098 822.141602,598.421997 
	C822.023315,600.708130 822.710388,603.022827 822.870483,605.338989 
	C823.205078,610.179504 821.458496,612.123962 816.635315,612.133911 
	C804.308655,612.159241 791.981384,612.150085 779.655273,612.040466 
	C772.188171,611.974060 769.856506,609.337585 769.967285,602.080017 
	C770.361206,576.267334 770.659729,550.453186 770.992493,524.639587 
	C771.122192,514.579651 775.292297,510.246613 785.227173,510.205933 
	C812.046204,510.096069 838.865601,510.091705 865.684692,510.006897 
	C870.699951,509.991028 875.334534,510.766937 878.819641,515.409973 
M827.419983,553.974854 
	C826.922913,553.963745 826.381653,553.818298 825.936523,553.965027 
	C824.036621,554.591248 820.839661,554.961304 820.557007,556.055481 
	C819.955139,558.385742 820.267578,561.455078 821.446655,563.508850 
	C821.958557,564.400269 825.541992,563.613892 827.715210,563.420227 
	C828.494202,563.350769 829.206116,562.714966 829.987854,562.456116 
	C832.757080,561.539185 835.296021,559.818665 834.054382,556.842346 
	C833.431763,555.350037 830.298767,554.905029 827.419983,553.974854 
z"/>
<path fill="#48E793" opacity="1.000000" stroke="none" 
	d="
M762.262817,582.849609 
	C762.467957,592.917236 757.478394,598.925293 749.486450,603.652832 
	C739.264343,609.699768 728.665955,612.473511 716.711731,612.055542 
	C699.918579,611.468445 683.087585,612.003540 666.272827,611.980225 
	C656.142151,611.966125 652.609558,608.567688 652.538818,598.615662 
	C652.380188,576.309937 652.319092,554.003296 652.273315,531.696899 
	C652.267456,528.872986 652.497681,526.038940 652.780518,523.225830 
	C653.695862,514.122192 657.219421,511.026978 666.333374,511.034119 
	C685.637817,511.049225 704.942322,511.046906 724.246704,510.999176 
	C738.004822,510.965179 748.265564,518.196167 757.118103,527.541565 
	C759.582642,530.143433 760.884033,534.702881 761.077637,538.449036 
	C761.833313,553.071594 761.930603,567.728088 762.262817,582.849609 
M715.788452,565.042053 
	C715.565552,563.583618 715.865479,561.527954 715.016479,560.784607 
	C712.920593,558.949646 710.446045,557.225708 707.828430,556.434814 
	C706.376526,555.996155 702.872253,557.393921 702.803833,558.182007 
	C702.488892,561.807190 702.485901,565.720581 703.710205,569.036072 
	C704.018982,569.872253 709.317505,569.153809 712.221191,568.608154 
	C713.452393,568.376770 714.421204,566.749023 715.788452,565.042053 
z"/>
<path fill="#48E692" opacity="1.000000" stroke="none" 
	d="
M991.501465,512.752319 
	C994.418945,511.645233 997.011658,510.268677 999.662292,510.146240 
	C1003.957581,509.947845 1008.296692,510.502930 1012.606873,510.864441 
	C1020.830139,511.554138 1022.887390,513.822998 1022.925110,522.230042 
	C1022.989380,536.547241 1023.010681,550.864685 1023.039124,565.182007 
	C1023.061951,576.667603 1023.264771,588.157349 1023.026489,599.637695 
	C1022.797119,610.688599 1020.797791,612.380981 1009.961975,612.058655 
	C1008.464478,612.014099 1006.965759,611.998535 1005.467468,611.994934 
	C995.675781,611.971497 994.677490,611.397827 991.102051,602.329651 
	C989.519531,598.315979 988.411926,594.117126 987.002075,590.032288 
	C986.497131,588.569397 985.737183,587.194397 985.093689,585.779297 
	C984.633911,585.858154 984.174194,585.937073 983.714417,586.015930 
	C983.635986,587.668335 983.424500,589.327332 983.505127,590.971924 
	C983.708618,595.126648 984.137634,599.271301 984.302246,603.426880 
	C984.506409,608.580444 981.968689,611.623230 976.712280,611.880249 
	C970.567200,612.180786 964.389221,612.138611 958.239014,611.898010 
	C953.156250,611.699158 951.800232,607.621887 951.140808,603.593689 
	C950.470947,599.501770 950.117004,595.308350 950.136108,591.161682 
	C950.241211,568.357544 950.418945,545.552856 950.753113,522.751038 
	C950.882874,513.898132 954.298096,510.893280 963.140747,511.062408 
	C964.472412,511.087891 965.804077,511.127380 967.135803,511.134491 
	C978.292847,511.194061 979.895386,512.289368 983.736755,522.941284 
	C985.399048,527.550598 986.868652,532.229309 988.425720,536.876465 
	C988.936829,536.844055 989.447937,536.811646 989.959045,536.779175 
	C990.144836,535.217102 990.531189,533.648193 990.478821,532.094177 
	C990.321960,527.438965 989.840454,522.790466 989.812439,518.137390 
	C989.802185,516.443054 990.712402,514.743225 991.501465,512.752319 
z"/>
<path fill="#47E692" opacity="1.000000" stroke="none" 
	d="
M1169.961670,536.010925 
	C1170.181396,557.984985 1170.390503,579.461365 1170.616821,600.937561 
	C1170.705933,609.394653 1168.619385,611.740540 1160.249268,612.042908 
	C1155.425049,612.217163 1150.589478,612.050598 1145.759155,612.083008 
	C1139.805786,612.122986 1137.280029,609.901062 1137.125977,603.788940 
	C1136.974976,597.800232 1137.219238,591.801514 1137.300171,585.807312 
	C1137.320435,584.309265 1137.737061,582.701050 1137.317261,581.346252 
	C1136.923340,580.075867 1135.663208,579.073975 1134.784424,577.953979 
	C1133.859619,579.061218 1132.163330,580.148560 1132.134155,581.278992 
	C1131.932251,589.101624 1131.902222,596.939392 1132.174805,604.759827 
	C1132.347778,609.724548 1130.057007,611.830505 1125.415405,611.921021 
	C1120.253174,612.021790 1115.089111,612.085571 1109.925903,612.086426 
	C1101.913086,612.087769 1100.056885,610.533936 1099.813354,602.656494 
	C1099.365479,588.173950 1099.047485,573.684021 1098.941528,559.195251 
	C1098.850342,546.705078 1099.152588,534.212402 1099.236206,521.720459 
	C1099.290894,513.549194 1101.794312,511.026276 1110.027710,511.007080 
	C1114.358521,510.996979 1118.689453,510.966675 1123.020142,510.981689 
	C1129.923584,511.005646 1132.746826,513.666931 1132.748535,520.613831 
	C1132.749634,525.604614 1132.302368,530.594666 1132.099487,535.586792 
	C1132.025269,537.416138 1131.734985,539.341187 1132.185669,541.053467 
	C1132.529053,542.358582 1133.886353,543.396790 1134.792603,544.553711 
	C1135.662964,543.372192 1137.258423,542.206543 1137.284546,541.006592 
	C1137.436768,534.017395 1137.255615,527.019531 1137.119385,520.025818 
	C1136.964355,512.071533 1138.872681,509.955292 1147.014771,510.064972 
	C1152.163086,510.134308 1157.308716,510.692505 1162.446777,511.133850 
	C1166.341919,511.468445 1168.556519,513.849915 1168.891724,517.585022 
	C1169.426392,523.544983 1169.620117,529.535583 1169.961670,536.010925 
z"/>
<path fill="#48E692" opacity="1.000000" stroke="none" 
	d="
M1091.231445,516.947998 
	C1092.597168,522.243774 1094.214966,527.175110 1094.777588,532.223999 
	C1095.439087,538.159241 1095.529175,544.218811 1095.142090,550.177490 
	C1095.005127,552.284851 1093.105957,555.562195 1091.373291,556.053101 
	C1084.840698,557.903992 1078.058350,558.901550 1071.343872,560.071350 
	C1067.225098,560.788879 1065.667236,558.953430 1065.855957,554.731262 
	C1065.946533,552.705078 1067.795166,548.855530 1063.774780,548.788208 
	C1059.844360,548.722229 1060.836182,552.628235 1060.787598,555.027161 
	C1060.662476,561.183960 1060.796021,567.353027 1061.085571,573.504944 
	C1061.138916,574.636292 1062.411377,575.710327 1063.121094,576.810791 
	C1064.062988,575.716125 1065.685913,574.709412 1065.840332,573.513184 
	C1067.197998,562.990295 1067.119873,562.984680 1077.911011,564.155640 
	C1082.213623,564.622620 1086.520142,565.052551 1090.822388,565.522888 
	C1094.416382,565.915771 1096.167603,567.979919 1096.049927,571.557495 
	C1095.743652,580.871216 1095.719238,590.210022 1094.965210,599.488647 
	C1094.230713,608.528076 1090.227295,612.347168 1081.096924,612.466614 
	C1067.622192,612.642883 1054.133911,612.325195 1040.661255,611.904236 
	C1034.134399,611.700256 1028.978027,606.587341 1028.941040,599.872070 
	C1028.803467,574.898376 1028.755859,549.917664 1029.232910,524.950317 
	C1029.412231,515.563904 1035.015503,511.058533 1044.492188,511.006561 
	C1056.140625,510.942688 1067.789551,511.003815 1079.438354,511.012726 
	C1084.205200,511.016357 1088.284668,512.440002 1091.231445,516.947998 
z"/>
<path fill="#48E692" opacity="1.000000" stroke="none" 
	d="
M922.894775,612.941772 
	C915.268311,612.618591 908.111816,612.437561 900.982544,611.896729 
	C894.266479,611.387390 890.455017,606.952026 890.284302,599.221191 
	C889.968262,584.910828 889.750244,570.593079 889.840027,556.280640 
	C889.904724,545.966492 890.347290,535.644592 890.962830,525.346619 
	C891.643250,513.963806 896.347656,510.340790 905.659424,510.865631 
	C914.281128,511.351593 922.951965,510.897797 931.598450,511.034088 
	C939.191956,511.153717 943.846619,514.678223 945.454712,522.157227 
	C946.495789,526.999146 946.683838,532.048767 946.962952,537.021667 
	C947.151428,540.379211 945.253235,542.295898 941.832581,542.474976 
	C937.013184,542.727234 932.177307,542.785278 927.379456,543.247620 
	C926.106689,543.370239 924.947266,544.669006 923.735840,545.427673 
	C924.989319,546.213013 926.202332,547.581909 927.504089,547.672119 
	C931.142944,547.924316 934.819336,547.563965 938.479431,547.598816 
	C944.056458,547.651978 945.633179,549.087952 945.917664,554.609863 
	C946.122925,558.592712 946.072510,562.592896 946.020386,566.583862 
	C945.935913,573.058838 944.739929,574.332458 938.192078,574.858887 
	C933.574402,575.230042 928.944397,575.448792 924.467224,575.726440 
	C922.722961,579.884155 923.942932,581.600647 927.859985,581.492859 
	C932.185303,581.373779 936.512024,581.283752 940.834717,581.100647 
	C944.736694,580.935425 946.999084,582.805359 946.948242,586.623413 
	C946.870911,592.435486 946.607056,598.267944 945.974915,604.042786 
	C945.437683,608.951111 942.295471,611.778931 937.334351,612.182678 
	C932.692322,612.560364 928.030029,612.688782 922.894775,612.941772 
z"/>
<path fill="#48E792" opacity="1.000000" stroke="none" 
	d="
M235.183868,612.050293 
	C231.632721,611.566650 228.553757,611.082397 225.474777,610.598206 
	C225.588730,610.380554 225.702667,610.162903 225.816605,609.945251 
	C223.600601,610.652649 221.401154,611.900269 219.165558,611.968750 
	C211.676315,612.198242 204.174164,611.993958 196.676910,611.980591 
	C192.254028,611.972717 189.833801,610.226807 190.073883,605.365845 
	C190.237244,602.058594 189.979874,598.690491 189.488968,595.412720 
	C189.316391,594.260437 187.888962,593.296143 187.034515,592.245972 
	C186.157928,593.307739 184.704865,594.277588 184.518173,595.449219 
	C184.050354,598.385010 183.846436,601.438965 184.101212,604.396912 
	C184.531540,609.392944 181.942154,611.671692 177.522400,611.842407 
	C170.202667,612.125122 162.860199,612.109314 155.536575,611.898132 
	C150.747467,611.759949 149.470230,609.815369 150.016342,603.967407 
	C151.781464,585.066101 153.683990,566.177673 155.450516,547.276489 
	C156.349106,537.661987 157.291550,528.042053 157.779160,518.402588 
	C158.029465,513.454041 160.679977,511.258881 164.933975,511.198914 
	C179.918930,510.987579 194.910095,511.002716 209.895737,511.188263 
	C214.209366,511.241669 216.701584,513.509216 217.109268,518.365356 
	C219.226501,543.584778 221.592667,568.783569 223.915833,593.985413 
	C224.205139,597.123840 224.753708,600.238342 226.137100,603.409729 
	C226.721268,593.645691 227.309341,583.881836 227.888748,574.117493 
	C228.993759,555.495728 230.048767,536.870850 231.218689,518.253113 
	C231.669434,511.079834 232.906387,510.000153 240.142532,510.015472 
	C247.806030,510.031708 255.469788,510.253784 263.132477,510.211426 
	C267.256592,510.188629 268.943512,511.866089 269.386505,516.093628 
	C270.217651,524.025574 271.677612,531.893433 272.964966,539.773499 
	C273.151581,540.915771 273.830048,541.977661 274.280884,543.076782 
	C274.735748,543.070862 275.190582,543.064880 275.645416,543.058960 
	C276.099060,541.481873 276.783173,539.931152 276.966827,538.323242 
	C277.798035,531.044922 278.592468,523.759155 279.191254,516.458862 
	C279.580658,511.711792 281.751984,509.783478 286.629181,509.995422 
	C294.446411,510.335144 302.294464,510.389587 310.113190,510.109558 
	C314.685455,509.945801 317.001648,511.477722 317.351227,516.112854 
	C318.515625,531.552368 319.830353,546.980591 320.974243,562.421570 
	C322.007568,576.369751 322.861023,590.331238 323.858032,604.282227 
	C324.254303,609.827087 322.554932,611.866211 316.831970,612.001221 
	C311.836395,612.119080 306.835968,612.029968 301.837708,612.036011 
	C292.081085,612.047913 292.204803,612.047058 292.052368,602.466064 
	C291.969330,597.245056 291.382843,592.032043 291.023407,586.815369 
	C290.484619,586.754456 289.945801,586.693481 289.406982,586.632507 
	C288.952789,588.371704 288.322327,590.086914 288.081207,591.855164 
	C287.586578,595.482117 287.402527,599.151917 286.889984,602.775696 
	C286.589386,604.901001 286.487427,607.421509 285.283997,608.985474 
	C281.052979,614.484131 274.829865,611.311279 269.477234,611.989929 
	C266.260651,612.397766 264.470306,610.555237 263.884125,607.551025 
	C262.866882,602.337769 261.957581,597.103455 260.999420,591.878662 
	C260.685852,590.168762 260.361145,588.460815 260.041504,586.752014 
	C259.568146,586.732483 259.094818,586.712952 258.621460,586.693420 
	C258.278809,588.471375 257.706635,590.240540 257.638672,592.028870 
	C257.467987,596.520020 257.592957,601.021667 257.471741,605.515625 
	C257.354401,609.867188 255.482346,612.265259 250.647385,612.011047 
	C245.664734,611.748901 240.654327,612.014832 235.183868,612.050293 
M187.474442,548.435974 
	C186.575684,548.690063 184.954437,548.826355 184.890854,549.216553 
	C184.306534,552.801819 183.719528,556.433899 183.756668,560.045898 
	C183.768616,561.207581 185.633484,562.350098 186.650635,563.501404 
	C187.455566,562.342224 188.962082,561.166809 188.935715,560.026917 
	C188.851913,556.404053 188.196930,552.794434 187.474442,548.435974 
z"/>
<path fill="#48E792" opacity="1.000000" stroke="none" 
	d="
M146.338196,586.002930 
	C146.259735,591.330322 146.345444,596.170898 146.031586,600.985535 
	C145.601242,607.587219 141.834122,611.537048 135.202225,611.760498 
	C125.381691,612.091370 115.543182,611.996277 105.714867,611.875610 
	C104.205986,611.857117 102.097237,611.156677 101.321838,610.039062 
	C98.790909,606.391052 95.514877,606.446533 92.051315,607.643860 
	C78.372299,612.372559 64.208771,612.118225 50.051781,611.906433 
	C38.446190,611.732849 34.029102,607.269043 34.010403,595.764221 
	C33.973042,572.778931 33.941032,549.793335 34.019646,526.808228 
	C34.054153,516.718811 39.811062,511.014374 49.834209,510.999817 
	C75.651596,510.962280 101.469193,510.964386 127.286507,511.029419 
	C137.010025,511.053894 142.280075,515.359314 143.847458,524.841492 
	C144.822510,530.740295 145.484589,536.736816 145.597336,542.702576 
	C145.629166,544.387085 143.553589,547.134033 141.892120,547.664917 
	C129.374771,551.664978 116.762596,555.395752 104.062836,558.769470 
	C102.050232,559.304138 99.481331,557.257507 97.112198,557.045227 
	C93.022141,556.678711 87.678963,555.261353 85.149796,557.227844 
	C83.094482,558.825867 83.400078,565.096619 84.663902,568.564270 
	C85.209770,570.062012 90.831192,570.167358 94.100716,570.000305 
	C95.496445,569.928955 97.541237,567.740479 97.945404,566.168091 
	C98.787994,562.890198 101.031609,562.425720 103.565819,562.375244 
	C112.391029,562.199402 121.219337,562.180115 130.046387,562.093323 
	C133.211441,562.062195 136.377167,562.041504 139.541031,561.957703 
	C145.597427,561.797241 147.473755,564.028809 146.946838,570.105225 
	C146.503510,575.217896 146.514420,580.369995 146.338196,586.002930 
z"/>
<path fill="#48E692" opacity="1.000000" stroke="none" 
	d="
M381.962952,571.535156 
	C378.954773,572.939209 376.150970,574.273621 373.198700,574.858582 
	C369.963287,575.499573 366.549072,575.221191 363.299835,575.817871 
	C362.087280,576.040405 361.120575,577.602051 360.041748,578.553101 
	C361.294220,579.525879 362.496857,581.245483 363.808411,581.333008 
	C367.946411,581.609192 372.126251,581.304382 376.288055,581.167419 
	C381.875244,580.983521 383.735321,582.928894 383.448059,588.590149 
	C383.220215,593.080017 383.291107,597.592468 382.889771,602.064392 
	C382.276062,608.903442 379.172577,612.194946 372.363678,612.291809 
	C360.722839,612.457397 349.067169,612.272461 337.431732,611.849426 
	C331.303070,611.626526 327.068298,607.357056 327.047211,601.147888 
	C326.961304,575.836853 326.863739,550.517395 327.459076,525.217224 
	C327.672302,516.155640 330.513702,510.191162 342.810608,510.873260 
	C350.610504,511.305939 358.454926,510.864929 366.276154,511.001648 
	C377.022705,511.189453 381.899933,515.864502 382.912872,526.732788 
	C383.098145,528.720581 383.040710,530.729980 383.189453,532.722351 
	C383.843597,541.485718 383.222534,542.265625 374.645325,542.759338 
	C370.820740,542.979553 366.975708,542.913330 363.164642,543.253906 
	C362.109894,543.348083 361.143829,544.435425 360.137024,545.067017 
	C361.114746,545.960999 362.048157,547.559570 363.078003,547.624268 
	C367.056122,547.874207 371.065460,547.655151 375.062347,547.572021 
	C379.618591,547.477173 382.439117,549.208191 382.341400,554.222168 
	C382.231537,559.859253 382.179260,565.497498 381.962952,571.535156 
z"/>
<path fill="#48E793" opacity="1.000000" stroke="none" 
	d="
M516.580933,612.055664 
	C487.312653,612.046997 458.500183,612.082642 429.688446,611.956299 
	C420.724579,611.917053 416.029327,607.183716 416.073151,598.328796 
	C416.186951,575.343201 416.419128,552.357727 416.730713,529.373962 
	C416.773071,526.248901 417.161285,523.021118 418.048492,520.036865 
	C420.050659,513.302002 423.441528,511.013794 430.518036,511.010864 
	C457.834625,510.999542 485.151276,510.980560 512.467834,511.018036 
	C521.425903,511.030334 526.812988,516.064392 526.981567,525.161499 
	C527.426025,549.135559 527.731567,573.114014 527.831177,597.091797 
	C527.873962,607.391602 524.919067,611.057190 516.580933,612.055664 
M477.822235,556.719604 
	C475.170105,556.767883 472.442688,556.462341 469.895447,557.003967 
	C468.482819,557.304382 466.601379,558.815247 466.250488,560.132019 
	C464.167847,567.947266 466.675873,570.976013 474.530823,570.252686 
	C476.592346,570.062866 480.241211,569.024719 480.292999,568.196838 
	C480.529114,564.420898 483.224792,559.985168 477.822235,556.719604 
z"/>
<path fill="#48E793" opacity="1.000000" stroke="none" 
	d="
M611.821655,511.742798 
	C618.252014,513.835815 621.611816,517.752441 621.716370,524.335815 
	C621.829895,531.486938 622.406067,538.635620 622.359924,545.782654 
	C622.329773,550.445435 618.853149,551.880798 614.801147,551.898560 
	C608.478149,551.926270 602.145752,551.552490 595.836548,551.812927 
	C594.198975,551.880554 591.471497,553.470947 591.257080,554.710144 
	C590.676208,558.066223 593.615784,558.001221 595.995056,557.992004 
	C602.321350,557.967468 608.647644,557.875854 614.973816,557.883972 
	C620.889832,557.891602 623.365784,560.519348 623.254456,566.510498 
	C623.112122,574.167175 622.976929,581.824036 622.837036,589.480774 
	C622.724060,595.664917 620.044250,598.651855 613.712830,598.822571 
	C608.902832,598.952332 604.067383,598.546631 599.258423,598.180542 
	C595.300415,597.879211 593.467163,599.120972 593.620178,603.468811 
	C593.835632,609.591492 591.378601,611.922729 585.280579,611.966187 
	C573.460632,612.050415 561.638672,612.130798 549.819885,611.999939 
	C541.711670,611.910217 537.993225,608.487732 537.956909,600.486694 
	C537.841309,575.027771 537.853943,549.565796 538.153198,524.108887 
	C538.261597,514.889648 542.801208,511.026031 552.072815,511.014679 
	C569.883362,510.992859 587.693909,510.985901 605.504333,511.030334 
	C607.479370,511.035278 609.453491,511.413849 611.821655,511.742798 
z"/>
<path fill="#14363E" opacity="1.000000" stroke="none" 
	d="
M827.860596,553.980591 
	C830.298767,554.905029 833.431763,555.350037 834.054382,556.842346 
	C835.296021,559.818665 832.757080,561.539185 829.987854,562.456116 
	C829.206116,562.714966 828.494202,563.350769 827.715210,563.420227 
	C825.541992,563.613892 821.958557,564.400269 821.446655,563.508850 
	C820.267578,561.455078 819.955139,558.385742 820.557007,556.055481 
	C820.839661,554.961304 824.036621,554.591248 825.936523,553.965027 
	C826.381653,553.818298 826.922913,553.963745 827.860596,553.980591 
z"/>
<path fill="#14363E" opacity="1.000000" stroke="none" 
	d="
M715.648804,565.398987 
	C714.421204,566.749023 713.452393,568.376770 712.221191,568.608154 
	C709.317505,569.153809 704.018982,569.872253 703.710205,569.036072 
	C702.485901,565.720581 702.488892,561.807190 702.803833,558.182007 
	C702.872253,557.393921 706.376526,555.996155 707.828430,556.434814 
	C710.446045,557.225708 712.920593,558.949646 715.016479,560.784607 
	C715.865479,561.527954 715.565552,563.583618 715.648804,565.398987 
z"/>
<path fill="#14363E" opacity="1.000000" stroke="none" 
	d="
M187.618561,548.807861 
	C188.196930,552.794434 188.851913,556.404053 188.935715,560.026917 
	C188.962082,561.166809 187.455566,562.342224 186.650635,563.501404 
	C185.633484,562.350098 183.768616,561.207581 183.756668,560.045898 
	C183.719528,556.433899 184.306534,552.801819 184.890854,549.216553 
	C184.954437,548.826355 186.575684,548.690063 187.618561,548.807861 
z"/>
<path fill="#14363E" opacity="1.000000" stroke="none" 
	d="
M478.231293,556.800537 
	C483.224792,559.985168 480.529114,564.420898 480.292999,568.196838 
	C480.241211,569.024719 476.592346,570.062866 474.530823,570.252686 
	C466.675873,570.976013 464.167847,567.947266 466.250488,560.132019 
	C466.601379,558.815247 468.482819,557.304382 469.895447,557.003967 
	C472.442688,556.462341 475.170105,556.767883 478.231293,556.800537 
z"/>
</svg>